<?xml version="1.0" encoding="UTF-8"?>
<!DOCTYPE svg PUBLIC "-//W3C//DTD SVG 1.1//EN" "http://www.w3.org/Graphics/SVG/1.1/DTD/svg11.dtd">
<!-- Creator: CorelDRAW 2017 -->
<svg xmlns="http://www.w3.org/2000/svg" xml:space="preserve" width="55.5987mm" height="9.6874mm" version="1.1" style="shape-rendering:geometricPrecision; text-rendering:geometricPrecision; image-rendering:optimizeQuality; fill-rule:evenodd; clip-rule:evenodd"
viewBox="0 0 568 99"
 xmlns:xlink="http://www.w3.org/1999/xlink">
 <defs>
  <style type="text/css">
   <![CDATA[
    .fil0 {fill:#F74327;fill-rule:nonzero}
   ]]>
  </style>
 </defs>
 <g id="图层_x0020_1">
  <metadata id="CorelCorpID_0Corel-Layer"/>
  <path class="fil0" d="M106 23l-83 0 0 15 77 0 0 23 -77 0 0 38 -23 0 0 -99 106 0 0 23zm132 0l-83 0 0 15 77 0 0 23 -77 0 0 15 82 0 0 23 -105 0 0 -99 106 0 0 23zm147 45c0,8 -3,15 -8,21 -5,6 -12,9 -20,9l-85 0 0 -23 85 0c3,0 5,-2 5,-7 0,-5 -2,-7 -5,-7l-62 0c-8,0 -15,-3 -20,-9 -5,-6 -8,-13 -8,-21 0,-8 3,-16 8,-22 5,-6 12,-9 20,-9l85 0 0 23 -86 0c-3,0 -5,3 -5,8 0,5 2,7 5,7l62 0c8,0 15,3 20,9 5,6 8,13 8,21zm183 -68l-36 99 -20 0 -23 -64 -23 64 -20 0 -36 -99 25 0 21 59 21 -59 25 0 0 1 21 58 21 -59 24 0z"/>
 </g>
</svg>
