<?xml version="1.0" encoding="UTF-8"?>
<!DOCTYPE svg PUBLIC "-//W3C//DTD SVG 1.1//EN" "http://www.w3.org/Graphics/SVG/1.1/DTD/svg11.dtd">
<!-- Creator: CorelDRAW 2017 -->
<svg xmlns="http://www.w3.org/2000/svg" xml:space="preserve" width="28.7738mm" height="28.7738mm" version="1.1" style="shape-rendering:geometricPrecision; text-rendering:geometricPrecision; image-rendering:optimizeQuality; fill-rule:evenodd; clip-rule:evenodd"
viewBox="0 0 152 152"
 xmlns:xlink="http://www.w3.org/1999/xlink">
 <defs>
  <style type="text/css">
   <![CDATA[
    .fil1 {fill:#F74327}
    .fil0 {fill:yellow}
   ]]>
  </style>
 </defs>
 <g id="图层_x0020_1">
  <metadata id="CorelCorpID_0Corel-Layer"/>
  <rect class="fil0" x="26" width="95" height="152"/>
  <path class="fil1" d="M115 126l0 -57 -61 0 0 -27 61 0 0 -42 37 0c0,44 0,87 0,131 0,12 -9,21 -21,21l-77 0 0 -27 61 0zm-18 -15l-61 0 0 42 -37 0c0,-44 0,-87 0,-131 0,-12 9,-21 21,-21l77 0 0 27 -61 0 0 57 61 0 0 27z"/>
 </g>
</svg>
